<svg width="16" height="16" viewBox="0 0 16 16" fill="none" xmlns="http://www.w3.org/2000/svg">
<mask id="mask0_52_395" style="mask-type:alpha" maskUnits="userSpaceOnUse" x="0" y="0" width="16" height="16">
<rect width="16" height="16" fill="#D9D9D9"/>
</mask>
<g mask="url(#mask0_52_395)">
<path d="M7.06683 11.0667L11.7668 6.36671L10.8335 5.43337L7.06683 9.20004L5.16683 7.30004L4.2335 8.23337L7.06683 11.0667ZM8.00016 14.6667C7.07794 14.6667 6.21127 14.4917 5.40016 14.1417C4.58905 13.7917 3.8835 13.3167 3.2835 12.7167C2.6835 12.1167 2.2085 11.4112 1.8585 10.6C1.5085 9.78893 1.3335 8.92226 1.3335 8.00004C1.3335 7.07782 1.5085 6.21115 1.8585 5.40004C2.2085 4.58893 2.6835 3.88337 3.2835 3.28337C3.8835 2.68337 4.58905 2.20837 5.40016 1.85837C6.21127 1.50837 7.07794 1.33337 8.00016 1.33337C8.92238 1.33337 9.78905 1.50837 10.6002 1.85837C11.4113 2.20837 12.1168 2.68337 12.7168 3.28337C13.3168 3.88337 13.7918 4.58893 14.1418 5.40004C14.4918 6.21115 14.6668 7.07782 14.6668 8.00004C14.6668 8.92226 14.4918 9.78893 14.1418 10.6C13.7918 11.4112 13.3168 12.1167 12.7168 12.7167C12.1168 13.3167 11.4113 13.7917 10.6002 14.1417C9.78905 14.4917 8.92238 14.6667 8.00016 14.6667ZM8.00016 13.3334C9.48905 13.3334 10.7502 12.8167 11.7835 11.7834C12.8168 10.75 13.3335 9.48893 13.3335 8.00004C13.3335 6.51115 12.8168 5.25004 11.7835 4.21671C10.7502 3.18337 9.48905 2.66671 8.00016 2.66671C6.51127 2.66671 5.25016 3.18337 4.21683 4.21671C3.1835 5.25004 2.66683 6.51115 2.66683 8.00004C2.66683 9.48893 3.1835 10.75 4.21683 11.7834C5.25016 12.8167 6.51127 13.3334 8.00016 13.3334Z" fill="#2D9CDB"/>
</g>
</svg>
