<svg width="21" height="20" viewBox="0 0 21 20" fill="none" xmlns="http://www.w3.org/2000/svg">
<mask id="mask0_52_170" style="mask-type:alpha" maskUnits="userSpaceOnUse" x="0" y="0" width="21" height="20">
<rect x="0.666992" width="20" height="20" fill="#D9D9D9"/>
</mask>
<g mask="url(#mask0_52_170)">
<path d="M10.6672 13.3333L6.50049 9.16658L7.66716 7.95825L9.83382 10.1249V3.33325H11.5005V10.1249L13.6672 7.95825L14.8338 9.16658L10.6672 13.3333ZM5.66715 16.6666C5.20882 16.6666 4.81646 16.5034 4.49007 16.177C4.16368 15.8506 4.00049 15.4583 4.00049 14.9999V12.4999H5.66715V14.9999H15.6672V12.4999H17.3338V14.9999C17.3338 15.4583 17.1706 15.8506 16.8442 16.177C16.5178 16.5034 16.1255 16.6666 15.6672 16.6666H5.66715Z" fill="#1C1B1F"/>
</g>
</svg>
