<svg width="101" height="80" viewBox="0 0 101 80" fill="none" xmlns="http://www.w3.org/2000/svg">
<path fill-rule="evenodd" clip-rule="evenodd" d="M23.192 4H12.5581L17.8081 16H28.442L23.192 4ZM27.5581 4L32.8081 16H43.442L38.192 4H27.5581ZM58.442 16H47.8081L42.5581 4H53.192L58.442 16ZM62.8081 16H73.442L68.192 4H57.5581L62.8081 16ZM88.442 16H77.8081L72.5581 4H83.192L88.442 16ZM92.8081 16H96.5V9C96.5 6.23857 94.2614 4 91.5 4H87.5581L92.8081 16ZM4.5 9C4.5 6.66667 6.09831 4.70663 8.25982 4.155L13.442 16H4.5V9ZM100.5 16V20V71C100.5 75.9706 96.4706 80 91.5 80H9.5C4.52943 80 0.5 75.9706 0.5 71V20V16V9C0.5 4.02944 4.52944 0 9.5 0H91.5C96.4706 0 100.5 4.02944 100.5 9V16ZM4.5 20V71C4.5 73.7614 6.73857 76 9.5 76H91.5C94.2614 76 96.5 73.7614 96.5 71V20H4.5ZM60.5 49L42.5 60V38L60.5 49Z" fill="#919191"/>
</svg>
